<svg xmlns="http://www.w3.org/2000/svg" width="512" height="512" viewBox="0 0 512 512" role="img" aria-label="Koinophobia Labs mark">
  <rect width="512" height="512" fill="#07090d"/>
  <circle cx="256" cy="256" r="210" fill="none" stroke="#d4af37" stroke-width="18"/>
  <path d="M148 272c54-116 180-128 230-48 22 36 9 85-27 112-58 44-152 24-203-64Z" fill="#d4af37"/>
  <path d="M202 255c34-37 89-42 128-8-29 9-55 29-75 62-24-8-41-25-53-54Z" fill="#0d0f14"/>
  <circle cx="340" cy="229" r="12" fill="#0d0f14"/>
  <path d="M142 276c-28-5-55-24-78-58 42-1 75 10 98 32" fill="#d4af37"/>
  <path d="M370 302c35 15 59 41 76 78-46-9-79-28-100-57" fill="#d4af37"/>
</svg>

